<?xml version="1.0" encoding="UTF-8"?>
<!DOCTYPE svg PUBLIC "-//W3C//DTD SVG 1.1//EN" "http://www.w3.org/Graphics/SVG/1.1/DTD/svg11.dtd">
<!-- Creator: CorelDRAW 2017 -->
<svg xmlns="http://www.w3.org/2000/svg" xml:space="preserve" width="98.0029mm" height="102.879mm" version="1.1" style="shape-rendering:geometricPrecision; text-rendering:geometricPrecision; image-rendering:optimizeQuality; fill-rule:evenodd; clip-rule:evenodd"
viewBox="0 0 2383 2501"
 xmlns:xlink="http://www.w3.org/1999/xlink">
 <defs>
  <style type="text/css">
   <![CDATA[
    .fil1 {fill:black}
    .fil2 {fill:#F43131}
    .fil0 {fill:white}
   ]]>
  </style>
 </defs>
 <g id="Слой_x0020_1">
  <metadata id="CorelCorpID_0Corel-Layer"/>
  <g id="_2226726462448">
   <path class="fil0" d="M2382 802c0,-121 -1,52 -1,-69 0,-174 -45,-240 -216,-298 -1,-31 -2,-61 -4,-90 -2,-33 -3,-65 -4,-97 -2,-143 -119,-245 -284,-248 -29,0 -79,-1 -117,0 0,0 -887,-2 -1193,0l-24 0c-37,0 -61,0 -106,4 -144,11 -268,170 -302,218 -114,158 -127,454 -127,469 3,177 -2,353 -2,530 0,124 -13,228 28,249 43,14 76,25 83,34 6,8 6,39 6,79l0 56c0,42 0,378 0,421 2,113 69,201 179,235 208,65 592,133 818,197 22,6 47,9 74,9 32,0 65,-5 96,-13 260,-74 526,-106 791,-188 129,-40 195,-125 196,-251l0 -47c1,-62 1,-421 -1,-484 -1,-22 3,-44 8,-45 117,-43 100,-124 102,-256 0,-138 0,-276 -1,-414z"/>
   <path class="fil1" d="M2382 802c0,-121 -1,52 -1,-69 0,-174 -45,-240 -216,-298 -1,-31 -2,-61 -4,-90 -2,-33 -3,-65 -4,-97 -2,-143 -119,-245 -284,-248 -29,0 -79,-1 -117,0 0,0 -887,-2 -1193,0l-24 0c-37,0 -61,0 -106,4 -144,11 -268,170 -302,218 -114,158 -127,454 -127,469 3,177 -2,353 -2,530 0,124 -13,228 28,249 43,14 76,25 83,34 6,8 6,39 6,79l0 56c0,42 0,378 0,421 2,113 69,201 179,235 208,65 592,133 818,197 22,6 47,9 74,9 32,0 65,-5 96,-13 260,-74 526,-106 791,-188 129,-40 195,-125 196,-251l0 -47c1,-62 1,-421 -1,-484 -1,-22 3,-44 8,-45 117,-43 100,-124 102,-256 0,-138 0,-276 -1,-414zm-1508 964l-511 283c-9,-151 -4,-327 -2,-478 168,45 344,126 513,195zm-340 358l523 -289c9,3 19,6 28,9 75,23 144,23 218,0 3,-1 6,-2 10,-3l527 292c-212,51 -425,83 -611,138 -20,6 -43,8 -55,4 -179,-53 -443,-102 -640,-150zm964 -351l532 295c4,-8 5,-17 5,-29 -5,-154 -1,-313 -1,-467 -175,51 -358,132 -536,202zm-333 -142l-886 -340c-40,-12 -43,-29 -43,-47 5,-283 -9,-197 -12,-455 47,85 122,133 217,133l996 -19 3 8 0 0c2,7 6,15 14,22 62,56 124,83 197,84 76,1 152,1 229,0 73,-1 126,-46 128,-108 1,-28 -9,-55 -29,-75 -24,-25 -60,-39 -101,-39 -30,0 -60,-1 -90,-1l-115 0c-36,0 -42,-11 -43,-36 -1,-20 -1,-41 0,-61 1,-34 3,-42 50,-42 140,-1 280,-1 420,0 45,0 47,8 47,42 0,142 0,-11 0,131 0,130 0,291 0,420 0,24 11,36 -24,46l-897 337c-18,5 -44,6 -61,1zm792 -1262l-225 0 -10 1c-6,1 -140,35 -229,78 -82,40 -118,150 -115,235 0,5 -3,17 -6,25 0,1 -1,2 -1,3l-885 -3c-49,0 -66,-13 -66,-87 0,-54 -2,-102 -4,-150 -2,-53 -4,-102 -4,-160 0,-33 -4,-60 -6,-80 -1,-9 -3,-19 -3,-25 5,-1 16,-3 36,-5l1449 -10c37,1 60,5 70,23 0,55 0,112 0,155z"/>
   <path class="fil2" d="M1653 1487c-83,0 -166,0 -248,0 -55,0 -93,-23 -104,-78 -11,-56 20,-90 71,-108 166,-58 331,-118 497,-174 76,-26 133,14 137,93 2,54 2,108 0,161 -3,70 -39,104 -111,105 -81,1 -161,0 -242,0zm-913 0c-83,0 -166,1 -249,0 -75,-1 -111,-36 -113,-110 -2,-52 -2,-104 0,-155 3,-87 60,-127 143,-98 166,57 332,116 498,174 51,18 83,51 74,106 -9,58 -48,84 -106,83 -83,0 -166,0 -249,0z"/>
  </g>
 </g>
</svg>
