<?xml version="1.0" encoding="UTF-8"?>
<!DOCTYPE svg PUBLIC "-//W3C//DTD SVG 1.1//EN" "http://www.w3.org/Graphics/SVG/1.1/DTD/svg11.dtd">
<!-- Creator: CorelDRAW 2017 -->
<svg xmlns="http://www.w3.org/2000/svg" xml:space="preserve" width="97.9265mm" height="102.881mm" version="1.1" style="shape-rendering:geometricPrecision; text-rendering:geometricPrecision; image-rendering:optimizeQuality; fill-rule:evenodd; clip-rule:evenodd"
viewBox="0 0 5987 6290"
 xmlns:xlink="http://www.w3.org/1999/xlink">
 <defs>
  <style type="text/css">
   <![CDATA[
    .fil1 {fill:black}
    .fil2 {fill:#F43131}
    .fil0 {fill:white}
   ]]>
  </style>
 </defs>
 <g id="Слой_x0020_1">
  <metadata id="CorelCorpID_0Corel-Layer"/>
  <g id="_2226726478800">
   <path class="fil0" d="M5985 2758c-1,-304 -2,-608 -2,-913 0,-438 -114,-603 -543,-749 -2,-77 -6,-153 -9,-227 -4,-82 -8,-163 -9,-245 -5,-360 -298,-616 -714,-623 -74,-1 -198,-3 -294,1 0,0 -2232,-5 -3000,-1l-61 0c-92,0 -152,0 -266,9 -361,29 -673,427 -760,548 -286,398 -318,1142 -320,1180 13,691 -6,1382 -5,2073 0,311 162,521 481,626 107,35 192,62 209,85 26,33 15,594 16,658 5,284 173,505 450,592 522,163 1080,335 1647,494 134,37 295,28 428,-9 523,-149 1042,-312 1562,-472 326,-100 492,-313 493,-632 2,-199 5,-398 -2,-597 -4,-87 110,-81 210,-114 337,-108 494,-312 494,-643 0,-347 -1,-694 -2,-1041z"/>
   <path class="fil1" d="M5985 2758c-1,-304 -2,-608 -2,-913 0,-438 -114,-603 -543,-749 -2,-77 -6,-153 -9,-227 -4,-82 -8,-163 -9,-245 -5,-360 -298,-616 -714,-623 -74,-1 -198,-3 -294,1 0,0 -2232,-5 -3000,-1l-61 0c-92,0 -152,0 -266,9 -361,29 -673,427 -760,548 -286,398 -318,1142 -320,1180 13,691 -6,1382 -5,2073 0,311 162,521 481,626 107,35 192,62 209,85 26,33 15,594 16,658 5,284 173,505 450,592 522,163 1080,335 1647,494 134,37 295,28 428,-9 523,-149 1042,-312 1562,-472 326,-100 492,-313 493,-632 2,-199 5,-398 -2,-597 -4,-87 110,-81 210,-114 337,-108 494,-312 494,-643 0,-347 -1,-694 -2,-1041zm-1303 2270c2,121 35,192 -107,234 -255,75 -509,153 -763,230 -242,74 -483,147 -726,219 -50,15 -107,19 -139,9 -578,-170 -1091,-326 -1568,-478 -90,-29 -67,-145 -67,-216 -2,-94 -1,-189 0,-288l0 -388c0,-207 13,-248 -195,-311 -140,-42 -280,-85 -420,-127 -101,-30 -108,-73 -107,-118 11,-595 -23,-1213 -29,-1810 118,214 308,334 546,334l2504 -49 8 19 0 0c6,17 15,37 34,56 155,142 312,208 494,210 192,2 383,2 575,0 185,-3 317,-115 321,-272 2,-71 -24,-137 -72,-188 -60,-62 -150,-97 -255,-99 -76,-1 -151,-2 -226,-2l-290 1c-90,0 -106,-28 -108,-91 -2,-51 -2,-103 0,-154 4,-86 8,-104 124,-105 352,-3 703,-3 1055,0 114,1 118,19 119,105 1,356 1,713 1,1070 0,326 0,652 1,978 0,60 -14,90 -102,117 -149,45 -298,90 -448,135 -173,53 -161,103 -161,275 0,265 0,438 0,704zm234 -4100l-566 0 -25 3c-14,4 -353,88 -575,195 -207,99 -296,376 -290,592 0,12 -8,42 -14,62 -1,3 -2,6 -3,9l-2226 -6c-124,0 -166,-32 -167,-218 -1,-136 -6,-258 -10,-378 -5,-132 -10,-258 -10,-403 0,-83 -9,-151 -16,-201 -3,-22 -6,-47 -7,-64 14,-4 40,-8 90,-11l3643 -26c92,3 151,13 177,57 0,137 0,283 0,390z"/>
   <path class="fil2" d="M2092 2667c177,347 198,-127 126,734 -13,150 -11,376 -102,469 -125,-16 -125,-70 -210,-150 -62,-57 -107,-137 -152,-214 -184,-308 -212,-476 -316,-784 -39,-114 -87,-133 -226,-141 -118,-7 -248,0 -368,0 -155,0 -253,-19 -306,70 -81,136 373,1021 497,1226 141,234 196,315 365,519 263,316 550,577 982,637 973,133 366,-447 710,-716 122,-52 259,124 327,198 22,24 40,48 62,68 443,401 211,502 1007,448 161,-11 343,-34 257,-243 -16,-39 -93,-129 -112,-149l-499 -579c-67,-80 -186,-159 44,-345l298 -327c105,-142 350,-402 394,-554 94,-321 -155,-258 -381,-259 -225,-1 -419,-53 -515,120 -174,314 -150,242 -312,463 -32,44 -41,43 -71,79 -83,99 -327,425 -431,454 -92,25 -32,2 -53,-7 -83,-148 93,-850 -32,-1128 -179,-46 -337,-25 -527,-22 -301,5 -406,-35 -455,135z"/>
  </g>
 </g>
</svg>
