<?xml version="1.0" encoding="UTF-8"?>
<!DOCTYPE svg PUBLIC "-//W3C//DTD SVG 1.1//EN" "http://www.w3.org/Graphics/SVG/1.1/DTD/svg11.dtd">
<!-- Creator: CorelDRAW 2017 -->
<svg xmlns="http://www.w3.org/2000/svg" xml:space="preserve" width="97.9265mm" height="102.881mm" version="1.1" style="shape-rendering:geometricPrecision; text-rendering:geometricPrecision; image-rendering:optimizeQuality; fill-rule:evenodd; clip-rule:evenodd"
viewBox="0 0 6671 7009"
 xmlns:xlink="http://www.w3.org/1999/xlink">
 <defs>
  <style type="text/css">
   <![CDATA[
    .fil2 {fill:black}
    .fil1 {fill:#F43131}
    .fil0 {fill:white}
   ]]>
  </style>
 </defs>
 <g id="Слой_x0020_1">
  <metadata id="CorelCorpID_0Corel-Layer"/>
  <g id="_2226661747040">
   <path class="fil0" d="M6669 3073c-1,-339 -3,-678 -3,-1017 0,-488 -127,-672 -605,-834 -2,-86 -6,-171 -10,-253 -5,-92 -9,-182 -10,-273 -5,-401 -332,-686 -796,-694 -82,-1 -221,-3 -328,1 0,0 -2487,-5 -3343,-1l-68 0c-102,0 -170,0 -297,10 -402,32 -750,476 -847,611 -318,444 -355,1273 -356,1314 14,770 -7,1540 -6,2310 0,346 181,581 536,697 119,39 213,69 233,95 28,37 17,662 18,733 5,316 193,563 502,660 582,182 1203,374 1835,551 149,42 329,32 477,-10 583,-166 1161,-347 1740,-526 363,-112 548,-349 549,-704 2,-222 5,-444 -2,-665 -4,-97 122,-91 234,-127 375,-120 550,-348 551,-716 0,-387 -1,-773 -3,-1160z"/>
   <path class="fil1" d="M4021 5196c266,0 502,-151 504,-385 1,-149 -123,-163 -222,-211 -104,-49 -211,-120 -336,-123 -65,64 -125,131 -186,187 -172,75 -693,-390 -649,-550 108,-166 242,-122 121,-410 -59,-140 -96,-381 -244,-410 -357,-70 -891,598 134,1505 169,150 561,395 878,395z"/>
   <path class="fil2" d="M6669 3073c-1,-339 -3,-678 -3,-1017 0,-488 -127,-672 -605,-834 -2,-86 -6,-171 -10,-253 -5,-92 -9,-182 -10,-273 -5,-401 -332,-686 -796,-694 -82,-1 -221,-3 -328,1 0,0 -2487,-5 -3343,-1l-68 0c-102,0 -170,0 -297,10 -402,32 -750,476 -847,611 -318,444 -355,1273 -356,1314 14,770 -7,1540 -6,2310 0,346 181,581 536,697 119,39 213,69 233,95 28,37 17,662 18,733 5,316 193,563 502,660 582,182 1203,374 1835,551 149,42 329,32 477,-10 583,-166 1161,-347 1740,-526 363,-112 548,-349 549,-704 2,-222 5,-444 -2,-665 -4,-97 122,-91 234,-127 375,-120 550,-348 551,-716 0,-387 -1,-773 -3,-1160zm-1452 2529c2,135 39,214 -120,261 -284,84 -567,170 -850,256 -269,82 -539,164 -809,244 -56,17 -119,21 -155,10 -644,-189 -1215,-363 -1747,-533 -101,-33 -74,-162 -74,-241 -2,-104 -1,-211 0,-321l0 -432c0,-230 15,-276 -217,-346 -156,-47 -312,-94 -468,-141 -112,-34 -121,-82 -120,-132 12,-663 -26,-1352 -33,-2017 132,239 343,373 608,373l2790 -54 9 21 0 0c7,19 17,42 38,62 173,158 348,232 551,234 214,2 427,3 641,0 206,-3 353,-128 358,-303 2,-79 -26,-153 -81,-209 -66,-69 -167,-108 -284,-110 -84,-1 -168,-2 -252,-2l-323 1c-100,0 -118,-31 -121,-101 -2,-57 -2,-114 0,-171 4,-96 9,-116 139,-117 392,-3 784,-4 1176,0 127,1 132,21 132,117 1,397 1,794 1,1192 0,363 0,726 1,1090 0,66 -16,101 -114,130 -166,50 -333,101 -499,151 -193,59 -179,114 -179,307 0,296 0,488 0,784zm261 -4568l-631 0 -28 3c-16,4 -393,98 -641,217 -231,111 -329,419 -323,659 0,13 -9,47 -15,70 -1,3 -2,6 -3,10l-2480 -7c-138,0 -185,-35 -186,-243 -1,-152 -6,-287 -12,-421 -6,-148 -12,-287 -12,-449 0,-93 -10,-169 -18,-224 -3,-24 -7,-52 -8,-71 15,-4 45,-9 100,-13l4060 -29c103,3 168,15 197,64 1,153 1,315 1,434z"/>
   <path class="fil1" d="M5502 4202c0,-1058 -857,-1915 -1915,-1915 -1058,0 -1915,857 -1915,1915 0,456 251,717 169,1097 -197,915 -338,841 632,588 181,-47 304,4 450,69 1229,552 2580,-431 2580,-1754zm-3095 541c-76,-165 -118,-348 -118,-541 0,-716 581,-1297 1297,-1297 716,0 1297,581 1297,1297 0,627 -445,1150 -1036,1271 -191,39 -366,34 -556,-11 -145,-35 -273,-80 -457,-76 -175,5 -374,32 -488,62 6,-236 150,-547 61,-705z"/>
  </g>
 </g>
</svg>
