<?xml version="1.0" encoding="UTF-8"?>
<!DOCTYPE svg PUBLIC "-//W3C//DTD SVG 1.1//EN" "http://www.w3.org/Graphics/SVG/1.1/DTD/svg11.dtd">
<!-- Creator: CorelDRAW 2017 -->
<svg xmlns="http://www.w3.org/2000/svg" xml:space="preserve" width="135.23mm" height="135.23mm" version="1.1" style="shape-rendering:geometricPrecision; text-rendering:geometricPrecision; image-rendering:optimizeQuality; fill-rule:evenodd; clip-rule:evenodd"
viewBox="0 0 16871 16871"
 xmlns:xlink="http://www.w3.org/1999/xlink">
 <defs>
  <style type="text/css">
   <![CDATA[
    .fil1 {fill:#FEFEFE}
    .fil0 {fill:#30BF39}
   ]]>
  </style>
 </defs>
 <g id="Слой_x0020_1">
  <metadata id="CorelCorpID_0Corel-Layer"/>
  <path class="fil0" d="M16871 15515c0,748 -607,1355 -1355,1355l-14160 0c-748,0 -1355,-607 -1355,-1355l0 -14160c0,-748 607,-1355 1355,-1355l14160 0c748,0 1355,607 1355,1355l0 14160z"/>
  <path class="fil1" d="M11611 9877c-163,-89 -966,-522 -1116,-583 -150,-61 -260,-93 -378,70 -117,162 -450,524 -550,632 -101,108 -199,118 -363,28 -163,-89 -692,-285 -1306,-875 -478,-459 -791,-1016 -882,-1187 -91,-170 -1,-257 86,-336 78,-72 174,-188 261,-282 86,-94 117,-162 176,-271 60,-109 36,-207 -3,-292 -38,-85 -340,-915 -466,-1254 -126,-338 -267,-288 -364,-292 -97,-3 -207,-21 -318,-26 -111,-4 -293,31 -451,191 -159,160 -604,547 -634,1365 -31,818 536,1631 615,1745 79,114 1081,1888 2746,2617 1666,730 1675,508 1981,491 306,-16 999,-366 1153,-749 153,-383 165,-716 127,-787 -39,-71 -148,-117 -311,-206l0 0zm-3055 3944c-1101,0 -2127,-330 -2984,-897l-2085 667 678 -2014c-649,-894 -1033,-1993 -1033,-3180 0,-2991 2433,-5424 5424,-5424 2991,0 5424,2433 5424,5424 0,2991 -2433,5424 -5424,5424l0 0zm0 -11940c-3598,0 -6515,2917 -6515,6516 0,1231 342,2382 935,3365l-1176 3496 3607 -1155c934,516 2007,810 3149,810 3599,0 6516,-2917 6516,-6516 0,-3599 -2917,-6516 -6516,-6516l0 0z"/>
 </g>
</svg>
