<?xml version="1.0" encoding="UTF-8"?>
<!DOCTYPE svg PUBLIC "-//W3C//DTD SVG 1.1//EN" "http://www.w3.org/Graphics/SVG/1.1/DTD/svg11.dtd">
<!-- Creator: CorelDRAW 2017 -->
<svg xmlns="http://www.w3.org/2000/svg" xml:space="preserve" width="97.9265mm" height="109.72mm" version="1.1" style="shape-rendering:geometricPrecision; text-rendering:geometricPrecision; image-rendering:optimizeQuality; fill-rule:evenodd; clip-rule:evenodd"
viewBox="0 0 10912 12226"
 xmlns:xlink="http://www.w3.org/1999/xlink">
 <defs>
  <style type="text/css">
   <![CDATA[
    .fil3 {fill:black}
    .fil1 {fill:black}
    .fil4 {fill:#F43131}
    .fil2 {fill:white}
    .fil0 {fill:white}
   ]]>
  </style>
 </defs>
 <g id="Слой_x0020_1">
  <metadata id="CorelCorpID_0Corel-Layer"/>
  <g id="_2226661731040">
   <path class="fil0" d="M10907 5026c-2,-554 -4,-1109 -4,-1663 0,-798 -207,-1099 -989,-1364 -3,-141 -10,-280 -17,-415 -8,-150 -15,-298 -17,-446 -9,-656 -544,-1123 -1301,-1135 -135,-2 -361,-5 -536,2 0,0 -4067,-8 -5468,-2l-110 0c-167,0 -278,0 -485,17 -658,52 -1227,778 -1385,1000 -520,726 -580,2082 -582,2150 14,777 7,1569 -1,2334 -5,481 -9,963 -9,1444 1,567 296,950 877,1140 195,63 349,114 381,155 28,36 28,179 28,361l-1 258c-1,193 -1,386 1,579 9,518 315,921 821,1079 952,297 1968,611 3001,901 103,29 218,43 341,43 148,0 299,-21 438,-60 801,-228 1608,-478 2388,-719l458 -142c593,-183 896,-571 898,-1152l2 -217c2,-285 5,-580 -6,-871 -3,-77 8,-96 8,-96 0,0 15,-12 68,-20 86,-13 163,-40 231,-65 25,-9 50,-18 75,-26 614,-197 900,-569 901,-1172 0,-632 -2,-1265 -4,-1898z"/>
   <path class="fil1" d="M10907 5026c-2,-554 -4,-1109 -4,-1663 0,-798 -207,-1099 -989,-1364 -3,-141 -10,-280 -17,-415 -8,-150 -15,-298 -17,-446 -9,-656 -544,-1123 -1301,-1135 -135,-2 -361,-5 -536,2 0,0 -4067,-8 -5468,-2l-110 0c-167,0 -278,0 -485,17 -658,52 -1227,778 -1385,1000 -520,726 -580,2082 -582,2150 14,777 7,1569 -1,2334 -5,481 -9,963 -9,1444 1,567 296,950 877,1140 195,63 349,114 381,155 28,36 28,179 28,361l-1 258c-1,193 -1,386 1,579 9,518 315,921 821,1079 952,297 1968,611 3001,901 103,29 218,43 341,43 148,0 299,-21 438,-60 801,-228 1608,-478 2388,-719l458 -142c593,-183 896,-571 898,-1152l2 -217c2,-285 5,-580 -6,-871 -3,-77 8,-96 8,-96 0,0 15,-12 68,-20 86,-13 163,-40 231,-65 25,-9 50,-18 75,-26 614,-197 900,-569 901,-1172 0,-632 -2,-1265 -4,-1898zm-8517 3609c0,-28 0,-56 1,-84 22,6 43,12 64,18l589 178c640,193 1280,386 1918,585 341,106 661,106 1000,-2 511,-162 1025,-316 1538,-471l409 -123c188,-57 376,-112 577,-170l47 -14c0,26 0,53 0,79 -2,246 -4,479 4,714 5,130 -22,193 -200,245 -464,137 -928,278 -1391,419 -440,134 -881,268 -1322,399 -92,27 -195,35 -253,17 -1053,-309 -1988,-594 -2858,-871 -37,-12 -100,-72 -108,-86 -19,-271 -16,-544 -13,-833zm2939 -279c-795,-237 -1589,-478 -2383,-718 -559,-170 -1117,-339 -1677,-508 -183,-55 -197,-134 -196,-216 4,-210 -2,-422 -8,-627 -5,-160 -9,-321 -9,-481 0,-420 -9,-846 -19,-1258 -7,-306 -14,-620 -17,-933 215,391 561,609 995,609l4563 -89 15 35 0 0c11,32 27,68 63,102 283,258 569,380 901,383 349,3 698,4 1048,0 336,-5 577,-209 585,-496 4,-129 -43,-250 -132,-342 -109,-113 -273,-177 -464,-180 -138,-2 -275,-3 -413,-3l-528 1c-163,0 -193,-51 -197,-166 -4,-93 -4,-187 0,-280 6,-157 15,-190 227,-192 641,-5 1282,-6 1923,0 209,2 216,35 216,191 2,650 2,1299 2,1949 0,594 0,1188 1,1782 1,108 -26,165 -186,212 -582,175 -1163,352 -1744,529 -763,231 -1525,463 -2289,691 -83,25 -202,27 -278,4zm3630 -6665l-1032 0 -46 5c-26,7 -643,161 -1048,355 -377,181 -539,686 -529,1079 1,21 -15,77 -25,114 -2,5 -3,11 -5,16l-4057 -12c-226,0 -302,-58 -304,-397 -2,-249 -10,-470 -19,-689 -10,-241 -19,-470 -19,-734 0,-152 -17,-276 -30,-367 -5,-40 -12,-86 -13,-116 25,-6 73,-15 163,-21l6640 -47c168,5 276,24 322,104 1,250 1,515 1,710z"/>
   <g>
    <path class="fil1" d="M3708 10979l0 0 0 0 0 0zm0 0l0 0 0 0zm0 0l0 0 0 0zm0 0l0 0 0 0zm0 0l0 0 0 0zm0 0l0 0 0 0 0 0zm-5 -5l-1 -1 1 1 0 0zm-1 -1l0 0 0 0zm0 0l-1 -1 1 1zm-1 -1l0 0 0 0 0 0zm-1 -2l-1 -1 0 0 1 1 0 0 1 1 -1 -1zm-1 -1l0 0 0 0 0 0zm0 0l-1 -1 0 0 1 1zm-1 -1l-1 -1 0 0 1 1zm-1 -1l0 0 0 0 0 0zm0 0l-1 -1 0 0 1 1zm-5 -6l0 0 0 0 0 0zm0 0l0 0 0 0zm0 0l0 0 0 0zm0 0l0 0 0 0 0 0zm-2 -2l0 0 0 0 0 0zm0 0l0 0 0 0 0 0zm-1 -1l0 0 0 0 0 0zm-2 -2l0 -1 0 1 0 0zm0 -1l0 0 0 0zm0 0l0 -1 0 1zm0 -1l0 0 0 0zm0 0l-1 -1 1 1zm-1 -1l0 0 0 0 0 0zm-1 -2l-1 -1 1 1 0 0zm-1 -1l0 0 0 0zm0 0l-1 -1 1 1zm-1 -1l0 0 0 0 0 0zm5 5l0 1 0 0 0 -1zm3 4l0 0 0 0 0 0zm3 3l0 0 0 0 0 0zm2 2l0 0 0 0 0 0zm1 1l0 0 0 0 0 0zm9 11l1 1 0 0 -1 -1zm1 2l1 1 0 0 0 -1zm-125 -146l-1 -1 1 1zm-1 -1l0 0 0 0zm0 0l-1 -1 1 1zm-1 -1l-1 -1 1 1zm-1 -1l0 0 0 0zm0 0l-1 -1 1 1zm-1 -1l0 0 0 0zm0 0l0 -1 0 0 0 1zm-11 -13l-2 -2 2 2zm-2 -3l0 0 0 0 0 0zm0 0l0 -1 0 0 0 1zm-2 -3l0 0 0 0 0 0zm0 0l0 0 0 0zm0 0l0 0 0 0zm0 0l0 0 0 0 0 0zm-1 -1l0 0 0 0 0 0zm0 0l0 0 0 0 0 0zm-14 -17l0 0 0 0zm2 3l0 0 0 0zm1 1l0 0 0 0zm1 1l0 1 0 -1zm1 1l0 1 0 -1zm1 1l1 1 -1 -1zm1 1l1 1 -1 -1zm1 1l0 0 0 0zm1 2l1 1 0 0 -1 -1zm1 1l0 0 0 0zm5 6l0 0 0 0zm5 6l1 1 0 0 -1 -1zm6 8l0 0 0 0 0 0zm-61 -74l-1 -1 1 1zm-1 -1l0 0 0 0zm0 0l-1 -1 1 1zm-1 -1l0 0 0 0zm0 0l-1 -1 1 1zm-1 -1l0 0 0 0zm0 0l-1 -1 1 1zm-1 -1l0 0 0 0zm0 0l0 -1 0 1zm0 -1l0 0 0 0zm0 0l0 -1 0 1zm0 -1l0 0 0 0zm0 0l0 -1 0 1zm0 -1l0 0 0 0zm0 0l0 0 0 0zm0 0l0 0 0 0zm0 0l0 0 0 0zm0 0l0 0 0 0zm0 0l0 0 0 0zm0 0l0 0 0 0zm0 0l0 0 0 0 0 0zm-1 -1l0 0 0 0zm-1 -1l0 0 0 0zm-1 -1l0 -1 0 1zm-1 -1l0 -1 0 1zm-1 -1l0 -1 0 1zm-3 -4l-1 -1 1 1 0 0zm-1 -1l0 0 0 0 0 0zm0 0l-1 -1 1 1zm-1 -1l0 0 0 0zm0 0l-1 -1 1 1zm-1 -1l0 0 0 0zm0 0l0 -1 0 0 0 1zm-1 -1l0 0 0 0zm-1 -1l0 0 0 0zm-2 -3l0 0 0 0zm-1 -1l0 0 0 0zm-1 -1l0 0 0 0 0 0zm-1 -1l0 0 0 0 0 0zm-2 -2l0 0 0 0 0 0zm-3 -3l-1 -1 0 0 1 1zm-2 -3l0 0 0 0 0 0zm-1 -2l0 -1 0 0 0 1zm-2 -2l0 0 0 0 0 0zm-1 -1l0 0 0 0 0 0zm-3 -3l1 1 -1 -1zm-32 -39l-1 -1 1 1zm-1 -1l0 0 0 0zm0 0l-1 -1 1 1zm-1 -1l0 0 0 0zm0 0l-1 -1 1 1zm-1 -1l0 0 0 0zm0 0l-1 -1 1 1zm-1 -1l0 0 0 0zm0 0l-1 -1 1 1zm-1 -1l0 0 0 0zm0 0l0 -1 0 1zm0 -1l0 0 0 0zm0 0l0 -1 0 1zm0 -1l0 0 0 0zm0 0l0 -1 0 1zm0 -1l0 0 0 0zm0 0l0 0 0 0 0 0zm-12 -15l0 0 0 0 0 0zm0 0l0 -1 0 0 0 1zm-1 -1l0 0 0 0 0 0zm0 0l0 0 0 0zm0 0l0 0 0 0zm0 0l0 0 0 0 0 0zm-3 -4l0 -1 0 1 0 0zm0 -1l0 0 0 0zm0 0l0 -1 0 1zm0 -1l0 0 0 0 0 0zm-3 -3l-1 -1 1 1 0 0zm-1 -1l0 0 0 0 0 0zm-1 -1l0 0 0 0 0 0zm0 0l-1 -1 0 0 1 1zm-6 -7l0 0 0 0 0 0zm0 0l0 0 0 0 0 0zm-6 -8l-1 -1 1 1 0 0zm-1 -1l0 0 0 0zm0 0l-1 -1 1 1zm3 3l0 1 0 0 0 -1zm2 3l0 0 0 0 0 0zm4 5l0 0 0 0 0 0zm10 12l0 0 0 0zm8 10l0 0 0 0zm2 2l0 0 0 0 0 0zm1 1l0 0 0 0zm3 3l0 0 0 0zm-55 -69l-1 -1 1 1zm-1 -1l0 0 0 0zm0 0l-1 -1 1 1zm-1 -1l0 0 0 0zm0 0l-1 -1 1 1zm-1 -1l0 0 0 0zm0 0l0 -1 0 0 0 1zm-10 -13l0 0 0 0 0 0zm0 0l0 0 0 0zm0 0l0 -1 0 1zm0 -1l0 0 0 0 0 0zm-2 -3l-1 -1 1 1 0 0zm-1 -1l0 0 0 0 0 0zm-3 -3l0 0 0 0 0 0zm0 0l0 -1 0 1zm0 -1l0 0 0 0zm0 0l0 -1 0 1zm0 -1l0 0 0 0zm0 0l0 0 0 0 0 0zm-3 -4l-1 -1 1 1 0 0zm-1 -1l0 0 0 0zm0 0l-1 -1 1 1zm-1 -1l0 0 0 0zm0 0l-1 -1 1 1zm-1 -1l0 0 0 0zm0 0l-1 -1 1 1zm-1 -1l0 0 0 0zm0 0l-1 -1 0 0 1 1zm-9 -12l0 1 0 -1zm2 2l1 1 -1 -1zm2 2l0 0 0 0zm2 2l0 0 0 0zm7 10l0 0 0 0zm4 6l1 1 -1 -1zm3 3l0 0 0 0zm3 4l0 1 0 -1zm1 2l1 1 -1 -1zm1 2l1 1 -1 -1zm1 2l0 0 0 0zm3 4l0 0 0 0zm-65 -85l0 0 0 0zm-2 -3l0 0 0 0zm-1 -1l0 0 0 0zm-2 -3l0 -1 0 1zm-1 -1l0 -1 0 1zm-1 -1l-1 -1 1 1zm-4 -5l0 0 0 0zm-1 -1l0 0 0 0zm-1 -1l0 0 0 0zm-1 -1l0 0 0 0zm-1 -1l0 0 0 0zm-1 -1l0 0 0 0zm-8 -11l-1 -1 1 1zm-1 -1l-1 -1 0 0 0 0 0 0 1 1 0 0zm-1 -1l-1 -1 1 1zm-1 -1l0 0 0 0zm0 0l-1 -1 1 1zm-1 -1l0 0 0 0zm0 0l-1 -1 1 1zm-1 -1l0 0 0 0zm0 0l-1 -1 1 1zm-1 -1l0 0 0 0zm0 0l0 -1 0 1zm0 -1l0 0 0 0zm0 0l0 -1 0 1zm0 -1l0 0 0 0zm0 0l0 -1 0 1zm0 -1l0 0 0 0zm0 0l0 -1 0 1zm0 -1l0 0 0 0zm0 0l0 0 0 0zm0 0l0 0 0 0zm0 0l0 0 0 0zm0 0l0 0 0 0zm0 0l0 0 0 0zm0 0l0 0 0 0zm0 0l0 0 0 0zm0 0l0 0 0 0zm0 0l0 0 0 0zm0 0l0 -1 0 1zm0 -1l0 0 0 0zm0 0l0 -1 0 1zm0 -1l0 0 0 0zm0 0l0 -1 0 1zm0 -1l0 0 0 0zm0 0l0 -1 0 1zm0 -1l0 0 0 0zm0 0l-1 -1 1 1zm-1 -1l0 0 0 0zm0 0l-1 -1 1 1zm-1 -1l0 0 0 0zm0 0l-1 -1 1 1zm-1 -1l0 0 0 0zm0 0l-1 -1 1 1zm-28 -38l0 0 -1 -1 0 0 0 -1 0 0 0 1 1 1zm-8 -11l0 -1 0 1 0 0zm0 -1l0 0 0 0zm0 0l-1 -1 1 1zm-1 -1l0 0 0 0 0 0zm-2 -2l-1 -1 1 1zm-2 -3l-1 -1 1 1zm-2 -3l-1 -1 0 0 -1 -1 0 0 -1 -1 0 0 -1 -1 0 0 -1 -1 0 0 -1 -1 0 0 4 6zm-5 -7l0 0 0 0zm-1 -2l0 0 0 0zm-1 -2l0 0 0 0 0 0zm0 0l-1 -1 1 1zm-1 -1l0 0 0 0zm0 0l0 -1 0 0 1 1zm-1 -1l0 -1 0 1zm0 -1l0 0 0 0zm0 0l0 -1 0 1zm0 -1l0 0 0 0zm0 0l0 -1 0 0 0 1zm-2 -2l0 -1 0 0 0 1zm-2 -2l0 0 0 0 0 0zm-1 -1l0 -1 0 1 0 0zm0 -1l0 0 0 0 0 0zm-3 -4l0 0 0 0 0 0zm28 38l0 0 0 0zm1 1l1 1 -1 -1zm-53 -73l0 0 0 0zm-1 -2l0 -1 0 1 0 0zm0 -1l0 0 0 0zm0 0l0 -1 0 1zm0 -1l0 0 0 0zm0 0l-1 -1 1 1zm-1 -1l0 0 0 0zm0 0l-1 -1 1 1zm-1 -1l0 0 0 0zm0 0l-1 -1 1 1zm-1 -1l0 0 0 0zm0 0l-1 -1 0 0 1 1zm-3 -5l0 -1 0 1zm-1 -2l-1 -1 1 1zm-1 -2l-1 -1 1 1 0 0zm-1 -1l0 0 0 0 0 0zm-1 -2l0 0 0 0zm-2 -3l0 0 0 0 0 0zm0 0l0 0 0 0 0 0zm-2 -2l-1 -1 1 1 0 0zm-1 -1l0 0 0 0zm0 0l-1 -1 1 1zm-1 -1l0 0 0 0 0 0zm-3 -5l0 0 0 0zm-3 -5l-1 -1 1 1zm-5 -7l0 -1 0 1 0 0zm0 -1l0 0 0 0zm0 0l0 -1 0 1zm0 -1l0 0 0 0zm0 0l-1 -1 1 1zm-1 -1l0 0 0 0zm0 0l-1 -1 1 1zm-1 -1l0 0 0 0zm0 0l-1 -1 1 1zm-1 -1l0 0 0 0zm0 0l-1 -1 1 1zm-1 -1l0 0 0 0zm0 0l-1 -1 1 1zm-1 -1l0 0 0 0zm0 0l-1 -1 1 1zm-1 -1l0 0 0 0zm0 0l0 -1 0 1zm0 -1l0 0 0 0zm0 0l0 -1 0 1zm0 -1l0 0 0 0zm0 0l0 0 0 0zm0 0l0 -1 0 1zm0 -1l0 0 0 0zm0 0l0 -1 0 1zm0 -1l0 0 0 0zm0 0l-1 -1 1 1zm-1 -1l0 0 0 0zm0 0l-1 -1 1 1zm-1 -1l0 0 0 0zm0 0l-1 -1 1 1zm19 26l1 1 -1 -1zm9 12l1 1 -1 -1 0 0zm5 7l0 1 0 -1zm1 1l1 1 -1 -1zm1 1l1 1 -1 -1zm-57 -81l-1 -1 0 -1 0 0 0 1 1 1zm-2 -3l0 0 0 0 0 0zm0 0l0 0 0 0 0 1zm-1 -2l-1 -1 0 0 0 -1 0 0 0 0 0 0 1 2zm-2 -3l-1 -1 1 1 0 0zm-1 -1l0 0 0 0zm0 0l-1 -1 1 1zm-1 -1l0 0 0 0 0 0zm-4 -5l0 0 0 0 0 0zm0 0l-1 -1 0 0 1 1zm-4 -6l0 0 0 0 0 0zm0 0l0 -1 0 1zm0 -1l0 0 0 0zm0 0l0 -1 0 0 0 1zm-13 -18l0 -1 0 0 0 1zm-9 -12l-1 -1 1 1 0 0zm-1 -1l0 0 0 0zm0 0l-1 -1 1 1zm3 4l1 1 0 0 -1 -1zm4 6l0 0 0 0 0 0zm1 1l0 0 0 0 0 0zm10 15l0 0 0 0zm3 4l0 1 0 -1zm3 4l0 1 0 -1zm1 1l1 1 -1 -1zm4 6l0 0 0 0zm1 1l0 0 0 0zm-166 -248l0 0 0 0zm-2 -3l0 0 0 0zm-3 -5l0 0 0 0zm-1 -2l0 0 0 0zm-1 -2l0 -1 0 1zm-1 -2l0 -1 0 1zm-1 -2l0 -1 0 1zm-1 -2l0 -1 0 1zm-1 -2l0 -1 0 1zm-1 -2l-1 -1 1 1zm-2 -3l-1 -1 1 1 0 0zm-1 -1l0 0 0 0zm0 0l-1 -1 1 1zm-1 -1l-1 -1 0 0 1 1zm-1 -1l0 0 0 0zm-1 -2l0 0 0 0zm-1 -1l0 0 0 0zm-2 -3l0 0 0 0zm-2 -4l0 0 0 0 0 0zm0 0l0 -1 0 1zm0 -1l0 0 0 0zm0 0l0 -1 0 1zm0 -1l0 0 0 0zm0 0l0 -1 0 1zm0 -1l0 0 0 0zm0 0l0 -1 0 1zm0 -1l0 0 0 0zm0 0l0 0 0 0zm0 0l0 0 0 0zm0 0l0 0 0 0zm0 0l0 -1 0 1zm0 -1l0 0 0 0zm0 0l0 -1 0 1zm0 -1l0 0 0 0zm0 0l0 -1 0 1zm0 -1l0 0 0 0zm0 0l0 -1 0 1zm0 -1l0 0 0 0zm0 0l0 -1 0 1zm0 -1l0 0 0 0zm0 0l0 -1 0 1zm0 -1l0 0 0 0zm0 0l0 -1 0 1zm0 -1l0 0 0 0zm0 0l0 -1 0 1zm0 -1l0 0 0 0zm0 0l0 -1 0 1zm0 -1l0 0 0 0zm0 0l-1 -1 1 1zm-1 -1l0 0 0 0zm0 0l-1 -1 1 1zm-1 -1l0 0 0 0zm0 0l-1 -1 1 1zm-1 -1l0 0 0 0zm0 0l-1 -1 1 1zm-1 -1l0 0 0 0zm0 0l-1 -1 1 1zm-1 -1l0 0 0 0zm0 0l-1 -1 1 1zm19 29l0 0 0 0zm-39 -61l-1 -1 0 0 1 1zm-2 -4l0 0 0 0zm-1 -1l0 0 0 0zm-1 -1l0 0 0 0zm-1 -1l0 0 0 0zm-1 -1l0 0 0 0zm-1 -1l0 0 0 0zm-1 -1l0 0 0 0zm-1 -1l0 -1 0 1zm-1 -1l0 -1 0 1zm-1 -1l0 -1 0 1zm-1 -1l0 -1 0 1zm-1 -1l0 -1 0 1zm-1 -1l0 -1 0 1zm-1 -1l-1 -1 1 1zm-1 -1l-1 -1 1 1 0 0zm-1 -2l-1 -1 1 1 0 0zm-1 -1l0 0 0 0 0 0zm-1 -1l0 0 0 0zm-1 -1l0 0 0 0zm-1 -1l0 0 0 0zm-1 -1l0 0 0 0zm-1 -2l0 0 0 0zm-1 -1l0 0 0 0zm-1 -1l0 0 0 0zm-1 -1l0 0 0 0zm-1 -1l0 0 0 0zm-1 -1l0 -1 0 1zm-1 -1l0 -1 0 1zm-1 -1l0 -1 0 1zm-1 -2l0 -1 0 1zm-1 -1l0 -1 0 1zm-1 -1l0 -1 0 1zm-1 -1l-1 -1 1 1zm-1 -1l-1 -2 1 2zm-1 -2l-1 -1 0 0 1 1zm-1 -1l0 0 0 0zm-1 -1l0 0 0 0zm-1 -1l0 0 0 0zm-1 -1l0 0 0 0zm-1 -1l0 0 0 0zm-1 -1l0 0 0 0zm-1 -1l0 0 0 0zm-1 -1l0 0 0 0zm-1 -1l0 0 0 0zm-1 -1l0 0 0 0 0 0zm0 0l0 -1 0 0 0 1zm-1 -1l0 -1 0 1zm-1 -2l0 -1 0 1zm-1 -2l0 -1 0 1 0 0zm0 -1l0 0 0 0zm0 0l0 -1 0 1zm0 -1l0 0 0 0zm0 0l-1 -1 1 1zm-1 -1l0 0 0 0zm0 0l-1 -1 1 1zm-1 -1l0 0 0 0zm0 0l-1 -1 1 1zm-1 -1l0 0 0 0zm0 0l-1 -1 1 1zm35 57l1 1 -1 -1zm-55 -89l0 0 0 0 0 0zm0 0l0 -1 0 0 0 1zm-10 -17l0 0 0 0 0 0zm0 0l-1 -1 0 0 1 1zm-1 -1l0 -1 0 0 0 1zm-1 -2l0 -1 0 0 0 1zm-1 -1l0 -1 0 0 0 1zm-1 -1l0 -1 0 0 0 1zm-1 -2l0 -1 0 0 0 1zm-1 -1l0 -1 0 0 0 0zm-1 -1l0 0 0 0 0 0zm-5 -8l-1 -1 1 1 0 0zm-1 -1l0 0 -1 -1 0 0 1 1 0 0 0 0zm-2 -4l0 0 0 0 0 0zm0 0l0 -1 0 1zm0 -1l0 0 0 0zm0 0l0 -1 0 0 0 1zm-1 -2l0 0 0 -1 1 1 0 0zm-1 -1l0 0 0 0 0 0zm0 0l0 -1 0 0 0 1zm-1 -2l0 0 0 0 1 1 0 0zm-1 -1l0 -1 0 1 0 0zm0 -1l0 0 0 0zm0 0l0 -1 0 1zm0 -1l0 0 0 0 0 0zm-1 -1l0 -1 0 1 0 0zm0 -1l0 0 0 0 0 0zm-1 -2l0 -1 0 1 0 0zm0 -1l0 0 0 0zm0 0l-1 -1 1 1zm-1 -1l0 0 0 0zm0 0l-1 -1 1 1zm-1 -1l0 0 0 0zm0 0l-1 -1 1 1zm10 17l0 0 0 0 0 0zm1 1l0 0 0 0 0 0zm2 3l1 1 0 0 -1 -1zm1 1l1 1 0 0 0 -1zm1 1l0 1 0 0 0 -1zm1 1l1 2 0 0 -1 -2zm1 2l0 1 0 0 0 -1zm8 13l0 0 0 0 0 0zm0 0l1 1 0 0 -1 -1zm1 1l1 1 0 0 -1 -1zm1 1l1 1 0 0 -1 -1zm1 1l1 1 0 0 0 -1zm2 4l0 1 0 0 0 -1zm1 1l0 1 0 0 0 -1zm1 1l0 1 0 0 0 -1zm2 3l0 0 0 0 0 0zm1 1l0 0 0 0 0 0zm-869 -2063l-7 -30 0 0 0 0 0 0 0 0 0 0 0 0 0 0 0 0 0 0 0 0 0 0 0 0 0 0 0 0 0 0 0 0 0 0 0 0 0 0 4 18 0 0 0 0 0 0 0 0 0 0 0 0 0 0z"/>
   </g>
   <path class="fil2" d="M5116 7627c257,373 760,995 1066,1244 47,-40 93,-82 128,-110 449,-359 959,-481 1474,-143 380,249 806,623 1120,953 279,294 494,647 426,1070 -63,391 -334,640 -586,916 -564,620 -1092,764 -1926,615 -534,-96 -1117,-361 -1565,-661 -1628,-1091 -2924,-2678 -3282,-4643 -184,-1010 -147,-1994 777,-2570l2008 0c166,235 303,554 396,759 115,250 222,503 333,755 159,359 333,667 219,1083 -83,303 -270,534 -533,700 -18,11 -36,22 -55,32z"/>
   <path class="fil3" d="M3822 4485c-215,41 -445,174 -624,266 -803,412 -767,1201 -620,2007 328,1801 1535,3247 3019,4241 333,223 850,481 1331,567 736,132 1018,-45 1362,-423 395,-434 665,-625 169,-1148 -251,-264 -684,-648 -1011,-862 -530,-347 -868,344 -1208,422 -392,90 -1552,-1388 -1796,-1846 -328,-612 512,-406 669,-978 60,-218 -122,-519 -189,-671 -103,-232 -592,-1396 -737,-1492 -108,-71 -229,-109 -363,-84z"/>
   <path class="fil4" d="M7706 6792c-379,0 -759,4 -1139,-1 -344,-4 -507,-164 -517,-504 -7,-237 -8,-475 0,-712 13,-399 273,-580 657,-449 762,261 1521,534 2282,798 235,82 379,233 341,487 -39,264 -220,383 -485,382 -380,-2 -759,-1 -1139,0z"/>
  </g>
 </g>
</svg>
