<?xml version="1.0" encoding="UTF-8"?>
<!DOCTYPE svg PUBLIC "-//W3C//DTD SVG 1.1//EN" "http://www.w3.org/Graphics/SVG/1.1/DTD/svg11.dtd">
<!-- Creator: CorelDRAW 2017 -->
<svg xmlns="http://www.w3.org/2000/svg" xml:space="preserve" width="97.9265mm" height="102.879mm" version="1.1" style="shape-rendering:geometricPrecision; text-rendering:geometricPrecision; image-rendering:optimizeQuality; fill-rule:evenodd; clip-rule:evenodd"
viewBox="0 0 2322 2439"
 xmlns:xlink="http://www.w3.org/1999/xlink">
 <defs>
  <style type="text/css">
   <![CDATA[
    .fil1 {fill:black}
    .fil2 {fill:#F43131}
    .fil0 {fill:white}
   ]]>
  </style>
 </defs>
 <g id="Слой_x0020_1">
  <metadata id="CorelCorpID_0Corel-Layer"/>
  <g id="_2226458392000">
   <path class="fil0" d="M2321 1069c0,-118 -1,-236 -1,-354 0,-170 -44,-234 -211,-290 -1,-30 -2,-59 -4,-88 -2,-32 -3,-63 -4,-95 -2,-140 -116,-239 -277,-242 -29,0 -77,-1 -114,0 0,0 -865,-2 -1164,0l-24 0c-36,0 -59,0 -103,4 -140,11 -261,166 -295,213 -111,154 -123,443 -124,458 3,165 1,334 0,497 -1,102 -2,205 -2,307 0,121 63,202 187,243 42,13 74,24 81,33 6,8 6,38 6,77l0 55c0,41 0,82 0,123 2,110 67,196 175,230 202,63 419,130 639,192 22,6 46,9 73,9 31,0 64,-4 93,-13 170,-49 342,-102 508,-153l97 -30c126,-39 191,-121 191,-245l0 -46c1,-61 1,-123 -1,-185 -1,-16 2,-20 2,-20 0,0 3,-3 15,-4 18,-3 35,-9 49,-14 5,-2 11,-4 16,-6 131,-42 191,-121 192,-249 0,-135 0,-269 -1,-404z"/>
   <path class="fil1" d="M2321 1069c0,-118 -1,-236 -1,-354 0,-170 -44,-234 -211,-290 -1,-30 -2,-59 -4,-88 -2,-32 -3,-63 -4,-95 -2,-140 -116,-239 -277,-242 -29,0 -77,-1 -114,0 0,0 -865,-2 -1164,0l-24 0c-36,0 -59,0 -103,4 -140,11 -261,166 -295,213 -111,154 -123,443 -124,458 3,165 1,334 0,497 -1,102 -2,205 -2,307 0,121 63,202 187,243 42,13 74,24 81,33 6,8 6,38 6,77l0 55c0,41 0,82 0,123 2,110 67,196 175,230 202,63 419,130 639,192 22,6 46,9 73,9 31,0 64,-4 93,-13 170,-49 342,-102 508,-153l97 -30c126,-39 191,-121 191,-245l0 -46c1,-61 1,-123 -1,-185 -1,-16 2,-20 2,-20 0,0 3,-3 15,-4 18,-3 35,-9 49,-14 5,-2 11,-4 16,-6 131,-42 191,-121 192,-249 0,-135 0,-269 -1,-404zm-1812 768c0,-6 0,-12 0,-18 5,1 9,3 14,4l125 38c136,41 272,82 408,124 73,23 141,23 213,0 109,-34 218,-67 327,-100l87 -26c40,-12 80,-24 123,-36l10 -3c0,6 0,11 0,17 0,52 -1,102 1,152 1,28 -5,41 -43,52 -99,29 -197,59 -296,89 -94,29 -187,57 -281,85 -19,6 -41,7 -54,4 -224,-66 -423,-126 -608,-185 -8,-3 -21,-15 -23,-18 -4,-58 -3,-116 -3,-177zm625 -59c-169,-50 -338,-102 -507,-153 -119,-36 -238,-72 -357,-108 -39,-12 -42,-28 -42,-46 1,-45 -1,-90 -2,-133 -1,-34 -2,-68 -2,-102 0,-89 -2,-180 -4,-268 -1,-65 -3,-132 -4,-199 46,83 119,130 212,130l971 -19 3 7 0 0c2,7 6,15 13,22 60,55 121,81 192,82 74,1 149,1 223,0 72,-1 123,-44 125,-106 1,-27 -9,-53 -28,-73 -23,-24 -58,-38 -99,-38 -29,0 -59,-1 -88,-1l-112 0c-35,0 -41,-11 -42,-35 -1,-20 -1,-40 0,-60 1,-33 3,-41 48,-41 136,-1 273,-1 409,0 44,0 46,7 46,41 0,138 0,277 0,415 0,126 0,253 0,379 0,23 -6,35 -40,45 -124,37 -247,75 -371,112 -162,49 -325,99 -487,147 -18,5 -43,6 -59,1zm772 -1418l-220 0 -10 1c-6,1 -137,34 -223,76 -80,39 -115,146 -113,230 0,4 -3,16 -5,24 0,1 -1,2 -1,3l-863 -3c-48,0 -64,-12 -65,-84 0,-53 -2,-100 -4,-147 -2,-51 -4,-100 -4,-156 0,-32 -4,-59 -6,-78 -1,-8 -2,-18 -3,-25 5,-1 16,-3 35,-4l1413 -10c36,1 59,5 68,22 0,53 0,110 0,151z"/>
   <path class="fil2" d="M1611 1450c-81,0 -161,0 -242,0 -53,0 -91,-23 -101,-76 -10,-54 19,-88 69,-106 162,-57 323,-115 485,-170 74,-25 130,14 133,91 2,52 2,105 0,157 -3,68 -38,101 -108,102 -79,1 -157,0 -236,0zm-891 0c-81,0 -162,1 -242,0 -73,-1 -108,-35 -110,-107 -2,-50 -2,-101 0,-151 3,-85 58,-124 140,-95 162,56 324,114 486,170 50,17 81,50 73,104 -8,56 -47,82 -103,81 -81,0 -162,0 -242,0z"/>
   <path class="fil1" d="M2321 1069c0,-118 -1,-236 -1,-354 0,-170 -44,-234 -211,-290 -1,-30 -2,-59 -4,-88 -2,-32 -3,-63 -4,-95 -2,-140 -116,-239 -277,-242 -29,0 -77,-1 -114,0 0,0 -865,-2 -1164,0l-24 0c-36,0 -59,0 -103,4 -140,11 -261,166 -295,213 -111,154 -123,443 -124,458 3,165 1,334 0,497 -1,102 -2,205 -2,307 0,121 63,202 187,243 42,13 74,24 81,33 6,8 6,38 6,77l0 55c0,41 0,82 0,123 2,110 67,196 175,230 202,63 419,130 639,192 22,6 46,9 73,9 31,0 64,-4 93,-13 170,-49 342,-102 508,-153l97 -30c126,-39 191,-121 191,-245l0 -46c1,-61 1,-123 -1,-185 -1,-16 2,-20 2,-20 0,0 3,-3 15,-4 18,-3 35,-9 49,-14 5,-2 11,-4 16,-6 131,-42 191,-121 192,-249 0,-135 0,-269 -1,-404zm-1812 768c0,-6 0,-12 0,-18 5,1 9,3 14,4l125 38c136,41 272,82 408,124 73,23 141,23 213,0 109,-34 218,-67 327,-100l87 -26c40,-12 80,-24 123,-36l10 -3c0,6 0,11 0,17 0,52 -1,102 1,152 1,28 -5,41 -43,52 -99,29 -197,59 -296,89 -94,29 -187,57 -281,85 -19,6 -41,7 -54,4 -224,-66 -423,-126 -608,-185 -8,-3 -21,-15 -23,-18 -4,-58 -3,-116 -3,-177zm625 -59c-169,-50 -338,-102 -507,-153 -119,-36 -238,-72 -357,-108 -39,-12 -42,-28 -42,-46 1,-45 -1,-90 -2,-133 -1,-34 -2,-68 -2,-102 0,-89 -2,-180 -4,-268 -1,-65 -3,-132 -4,-199 46,83 119,130 212,130l971 -19 3 7 0 0c2,7 6,15 13,22 60,55 121,81 192,82 74,1 149,1 223,0 72,-1 123,-44 125,-106 1,-27 -9,-53 -28,-73 -23,-24 -58,-38 -99,-38 -29,0 -59,-1 -88,-1l-112 0c-35,0 -41,-11 -42,-35 -1,-20 -1,-40 0,-60 1,-33 3,-41 48,-41 136,-1 273,-1 409,0 44,0 46,7 46,41 0,138 0,277 0,415 0,126 0,253 0,379 0,23 -6,35 -40,45 -124,37 -247,75 -371,112 -162,49 -325,99 -487,147 -18,5 -43,6 -59,1zm772 -1418l-220 0 -10 1c-6,1 -137,34 -223,76 -80,39 -115,146 -113,230 0,4 -3,16 -5,24 0,1 -1,2 -1,3l-863 -3c-48,0 -64,-12 -65,-84 0,-53 -2,-100 -4,-147 -2,-51 -4,-100 -4,-156 0,-32 -4,-59 -6,-78 -1,-8 -2,-18 -3,-25 5,-1 16,-3 35,-4l1413 -10c36,1 59,5 68,22 0,53 0,110 0,151z"/>
  </g>
 </g>
</svg>
